<svg width="48" height="44" viewBox="0 0 48 44" fill="none" xmlns="http://www.w3.org/2000/svg">
<path fill-rule="evenodd" clip-rule="evenodd" d="M47.7351 43.3299C47.6079 42.6252 45.6323 36.8482 44.4103 33.315C45.8235 30.9241 47.1754 26.6929 47.1754 22.2636V20.2831C47.1713 6.92304 38.5519 0 23.5903 0C8.62862 0 0 6.92294 0 20.2797V22.2601C0 35.6168 8.62576 42.372 23.5903 42.372C30.7766 42.372 35.5492 41.0108 37.6795 39.6802C37.7649 39.629 37.8474 39.5743 37.9327 39.5228C41.5727 41.3562 46.3989 43.7641 47.0002 43.9557C47.4929 44.1131 47.8218 43.8391 47.7323 43.3264" fill="#CD0986"/>
<path d="M13.8962 15.0191C13.9263 15.3942 13.8822 15.7716 13.7665 16.1296C13.6507 16.4877 13.4656 16.8195 13.2216 17.106C12.9776 17.3925 12.6795 17.6281 12.3445 17.7994C12.0094 17.9707 11.6439 18.0743 11.2688 18.1043L9.09029 18.2788L9.37103 21.7436L7.17738 21.9216L6.43843 12.7446L7.32189 12.6728L8.63198 12.5669L10.8105 12.3925C11.1858 12.3612 11.5635 12.4045 11.9221 12.5198C12.2806 12.635 12.6128 12.82 12.8995 13.0641C13.1863 13.3082 13.422 13.6066 13.593 13.9421C13.7641 14.2776 13.8671 14.6437 13.8962 15.0191ZM11.8303 15.1732C11.8121 14.9331 11.7046 14.7087 11.5291 14.5439C11.3536 14.3792 11.1228 14.2862 10.8821 14.2832H10.8683L10.8037 14.2901C10.782 14.2907 10.7604 14.293 10.7391 14.297L8.77913 14.4543H8.7268L8.88507 16.4037H8.93593L10.8959 16.2429C10.9176 16.2439 10.9394 16.2417 10.9605 16.2361H11.0128L11.039 16.2292V16.2154C11.2763 16.17 11.4885 16.0385 11.6346 15.8461C11.7808 15.6536 11.8506 15.414 11.8306 15.1732H11.8303Z" fill="white"/>
<path d="M14.2902 9.9088C14.272 9.74871 14.2864 9.58659 14.3324 9.43218C14.3785 9.27778 14.4553 9.13428 14.5582 9.01031C14.6611 8.88634 14.788 8.78446 14.9313 8.7108C15.0746 8.63713 15.2313 8.5932 15.392 8.58165C15.5553 8.56399 15.7204 8.57922 15.8776 8.62644C16.0349 8.67365 16.1811 8.7519 16.3076 8.85655C16.4341 8.96121 16.5383 9.09015 16.6142 9.23577C16.69 9.38138 16.7359 9.54072 16.7492 9.70437C16.7624 9.86802 16.7427 10.0327 16.6913 10.1886C16.6398 10.3445 16.5576 10.4885 16.4496 10.6121C16.3416 10.7358 16.2098 10.8365 16.0622 10.9084C15.9146 10.9802 15.7541 11.0218 15.5902 11.0306C14.9227 11.0854 14.3764 10.5757 14.2897 9.91208" fill="white"/>
<path d="M16.7424 11.9181L14.6189 12.089L15.3566 21.2637L17.48 21.0928L16.7424 11.9181Z" fill="white"/>
<path d="M22.3807 14.3895L22.367 14.2219C22.3256 13.7157 21.7986 13.3532 21.2041 13.401C20.5808 13.4524 20.1087 13.9073 20.1472 14.3999C20.1537 14.5155 20.1932 14.6269 20.261 14.7207C20.3288 14.8146 20.4221 14.8871 20.5298 14.9296H20.5436C20.8247 15.0777 21.1294 15.1761 21.4441 15.2204C21.5872 15.2341 21.7207 15.2614 21.8776 15.2785C22.5147 15.3844 23.1877 15.4873 23.7382 15.8462C23.7529 15.8659 23.7717 15.8823 23.7933 15.8941L23.9612 16.0106H23.9474C24.2237 16.238 24.4519 16.5181 24.6187 16.8346C24.7855 17.1511 24.8876 17.4976 24.919 17.854C24.981 18.6339 24.6892 19.3864 24.0974 19.9986C23.4733 20.5895 22.6659 20.949 21.8092 21.0175C20.9525 21.0859 20.0981 20.8591 19.3882 20.3748C18.707 19.8686 18.2872 19.1708 18.2212 18.3909L18.2074 18.2201L20.4795 18.0387L20.4933 18.2063C20.5346 18.6988 21.0465 19.075 21.6423 19.0271C22.2643 18.976 22.7364 18.5209 22.6992 18.0284C22.693 17.9127 22.6536 17.8013 22.5857 17.7073C22.5179 17.6134 22.4245 17.541 22.3166 17.4987L22.3029 17.485C22.0524 17.3208 21.7112 17.2592 21.4056 17.2046C21.2597 17.1773 21.129 17.1601 20.968 17.1362C20.3323 17.0302 19.5932 16.9342 19.0497 16.5204C19.0343 16.5048 19.0154 16.4931 18.9946 16.4862C18.6903 16.2613 18.4368 15.9747 18.2506 15.6453C18.0644 15.3159 17.9497 14.9509 17.914 14.5741C17.852 13.7943 18.1562 13.038 18.748 12.4295C19.3721 11.8386 20.1796 11.4787 21.0364 11.4096C21.8932 11.3406 22.7478 11.5665 23.4586 12.0498C24.1384 12.5561 24.5498 13.2539 24.6104 14.0337L24.6242 14.2013L22.3807 14.3826V14.3895Z" fill="white"/>
<path d="M31.7522 17.0577L33.4628 18.5147C32.867 19.2176 32.0761 19.7279 31.1901 19.981C30.3042 20.2342 29.363 20.2187 28.4859 19.9367C27.6087 19.6546 26.8349 19.1186 26.2625 18.3966C25.6902 17.6745 25.3449 16.7989 25.2704 15.8805C25.196 14.9621 25.3957 14.0422 25.8444 13.2374C26.293 12.4326 26.9703 11.779 27.7906 11.3593C28.6109 10.9397 29.5373 10.7729 30.4525 10.88C31.3676 10.9872 32.2304 11.3634 32.9316 11.9612L31.4756 13.6713C30.9851 13.2616 30.3543 13.0591 29.717 13.107C29.082 13.1577 28.4931 13.4586 28.08 13.9435C27.6668 14.4284 27.4632 15.0575 27.5139 15.6925C27.5647 16.3276 27.8656 16.9164 28.3505 17.3296C28.8354 17.7427 29.4645 17.9463 30.0995 17.8956C30.7363 17.8412 31.3268 17.5406 31.7455 17.0577" fill="white"/>
<path d="M42.1189 19.1096L39.8624 19.2908L39.116 17.4814L36.2742 17.7106L35.8398 19.6125L33.5688 19.7936L35.8491 10.4662L38.3951 10.2609L42.1231 19.1061L42.1189 19.1096ZM38.3675 15.6378L37.3409 13.1341L36.7285 15.771L38.3634 15.6375L38.3675 15.6378Z" fill="white"/>
<path d="M14.7205 25.2322C14.7506 25.6073 14.7065 25.9846 14.5908 26.3427C14.475 26.7007 14.2898 27.0325 14.0459 27.3189C13.8019 27.6054 13.5039 27.8411 13.1688 28.0124C12.8338 28.1837 12.4683 28.2873 12.0932 28.3173L9.91465 28.4918L10.1954 31.9567L8.00175 32.1344L7.26407 22.9575L8.14615 22.8856L9.45624 22.7797L11.6347 22.6052C12.0101 22.574 12.3879 22.6172 12.7464 22.7325C13.1049 22.8478 13.4372 23.0328 13.7239 23.277C14.0107 23.5211 14.2464 23.8195 14.4174 24.1551C14.5885 24.4906 14.6915 24.8567 14.7205 25.2322ZM12.6547 25.386C12.6363 25.1461 12.5288 24.9218 12.3533 24.7572C12.1778 24.5926 11.947 24.4997 11.7065 24.4967H11.6927L11.6281 24.5036C11.6064 24.5042 11.5848 24.5065 11.5634 24.5104L9.6035 24.6678H9.55116L9.70944 26.6171H9.76029L11.7202 26.4564C11.742 26.4576 11.7638 26.4553 11.7849 26.4495H11.8372L11.8647 26.4427V26.429C12.1021 26.3836 12.3143 26.2519 12.4603 26.0593C12.6063 25.8667 12.6758 25.6268 12.6554 25.386H12.6547Z" fill="white"/>
<path d="M17.5626 22.1318L15.4392 22.3027L16.1769 31.4774L18.3017 31.3065L17.5626 22.1318Z" fill="white"/>
<path d="M23.2008 24.6028L23.187 24.4352C23.1457 23.9289 22.6186 23.5665 22.0242 23.6144C21.4008 23.6658 20.9288 24.1206 20.9673 24.6131C20.973 24.729 21.0121 24.8407 21.08 24.9347C21.1479 25.0288 21.2417 25.1011 21.3499 25.1428H21.3637C21.6447 25.2911 21.9494 25.3895 22.2642 25.4336C22.4073 25.4473 22.5408 25.4746 22.6977 25.4917C23.3348 25.5976 24.0078 25.7003 24.5582 26.0594C24.573 26.0791 24.5918 26.0955 24.6133 26.1073L24.7813 26.2239H24.7675C25.0438 26.4512 25.272 26.7313 25.4388 27.0478C25.6056 27.3643 25.7077 27.7109 25.7391 28.0673C25.8011 28.8471 25.5093 29.5996 24.9175 30.2084C24.2934 30.7993 23.4859 31.1588 22.6292 31.2272C21.7725 31.2957 20.9182 31.0689 20.2082 30.5846C19.527 30.0784 19.1073 29.3805 19.0413 28.6007L19.0275 28.4298L21.2996 28.2484L21.3133 28.416C21.3546 28.9086 21.8666 29.2848 22.4624 29.2369C23.0844 29.1857 23.5565 28.7307 23.5193 28.2382C23.513 28.1223 23.4735 28.0107 23.4054 27.9167C23.3373 27.8227 23.2435 27.7504 23.1353 27.7084L23.1229 27.6948C22.8725 27.5306 22.5312 27.4689 22.2257 27.4143C22.0784 27.3869 21.9491 27.3698 21.7881 27.3459C21.1524 27.24 20.4132 27.144 19.8696 26.7302C19.8543 26.7146 19.8354 26.7028 19.8147 26.6959C19.5104 26.471 19.2568 26.1845 19.0707 25.855C18.8845 25.5256 18.7698 25.1606 18.734 24.7839C18.6722 24.004 18.9762 23.2477 19.568 22.6393C20.1922 22.0483 20.9997 21.6885 21.8564 21.6194C22.7132 21.5504 23.5679 21.7762 24.2787 22.2596C24.9585 22.7659 25.3686 23.4636 25.4305 24.2435L25.4442 24.4111L23.2011 24.5923L23.2008 24.6028Z" fill="white"/>
<path d="M32.5725 27.2706L34.2831 28.7273C33.6873 29.4302 32.8964 29.9405 32.0104 30.1937C31.1244 30.4468 30.1833 30.4314 29.3061 30.1493C28.429 29.8672 27.6552 29.3313 27.0828 28.6092C26.5104 27.8871 26.1651 27.0115 26.0907 26.0931C26.0163 25.1747 26.216 24.2549 26.6646 23.45C27.1133 22.6452 27.7906 21.9916 28.6109 21.572C29.4312 21.1523 30.3576 20.9855 31.2727 21.0926C32.1879 21.1998 33.0507 21.5761 33.7519 22.1738L32.2959 23.8845C31.8055 23.4746 31.1746 23.2722 30.5372 23.3201C29.9022 23.3709 29.3134 23.6718 28.9002 24.1567C28.4871 24.6415 28.2835 25.2707 28.3342 25.9057C28.3849 26.5407 28.6859 27.1296 29.1707 27.5427C29.6556 27.9559 30.2848 28.1595 30.9198 28.1087C31.5566 28.0543 32.147 27.7536 32.5656 27.2706" fill="white"/>
<path d="M42.9432 29.3233L40.6866 29.5045L39.9404 27.6951L37.0987 27.9243L36.6643 29.826L34.3936 30.0073L36.6753 20.6798L39.2199 20.4746L42.9479 29.3198L42.9432 29.3233ZM39.1918 25.8515L38.1652 23.3478L37.5528 25.9849L39.1882 25.8515H39.1918Z" fill="white"/>
<path d="M39.3624 32.0662C39.3904 32.4136 39.2793 32.758 39.0535 33.0235C38.8277 33.2891 38.5057 33.4541 38.1582 33.4822L37.1563 33.5643L37.2835 35.1547L36.277 35.2368L35.938 31.0228L36.3412 30.9886L36.9439 30.9408L37.9458 30.8587C38.118 30.8444 38.2912 30.8642 38.4557 30.917C38.6201 30.9699 38.7725 31.0546 38.9041 31.1665C39.0357 31.2784 39.144 31.4151 39.2226 31.5689C39.3012 31.7227 39.3487 31.8905 39.3624 32.0627M38.4156 32.1311C38.4067 32.0214 38.3573 31.919 38.277 31.8437C38.1967 31.7685 38.0912 31.7259 37.9812 31.7242H37.9123L37.0118 31.7993H36.9884L37.06 32.6892L38.0495 32.6105C38.1587 32.5903 38.2564 32.5299 38.3234 32.4413C38.3904 32.3527 38.4218 32.2422 38.4114 32.1317" fill="white"/>
<path d="M42.8401 30.4653L39.4436 30.7389L39.5234 31.7172L40.7331 31.6179L40.9932 34.8536L41.9689 34.7749L41.7088 31.5393L42.9198 31.4439L42.8401 30.4653Z" fill="white"/>
<path d="M34.3931 34.8236C34.3848 34.75 34.3914 34.6756 34.4126 34.6047C34.4338 34.5338 34.4691 34.4679 34.5164 34.411C34.5637 34.3541 34.622 34.3074 34.6879 34.2736C34.7537 34.2398 34.8257 34.2197 34.8995 34.2144C35.011 34.2026 35.1235 34.2243 35.2227 34.2767C35.3219 34.3291 35.4033 34.4098 35.4564 34.5085C35.5096 34.6073 35.5322 34.7196 35.5213 34.8313C35.5104 34.9429 35.4666 35.0488 35.3954 35.1354C35.3242 35.222 35.2288 35.2855 35.1213 35.3178C35.0139 35.3501 34.8993 35.3496 34.7922 35.3166C34.685 35.2835 34.5901 35.2193 34.5195 35.1321C34.4489 35.045 34.4059 34.9388 34.3958 34.8271" fill="white"/>
</svg>
