<svg width="28" height="28" viewBox="0 0 28 28" fill="none" xmlns="http://www.w3.org/2000/svg">
<rect width="28" height="28" rx="14" fill="#377FC4"/>
<path d="M18.5832 13.9091C18.5832 14.9962 18.3843 15.9309 17.9866 16.7131C17.5889 17.492 17.0436 18.0919 16.3509 18.5128C15.6615 18.9304 14.8777 19.1392 13.9994 19.1392C13.1178 19.1392 12.3306 18.9304 11.6379 18.5128C10.9485 18.0919 10.4049 17.4903 10.0072 16.7081C9.60946 15.9259 9.4106 14.9929 9.4106 13.9091C9.4106 12.822 9.60946 11.889 10.0072 11.1101C10.4049 10.3279 10.9485 9.72798 11.6379 9.31037C12.3306 8.88944 13.1178 8.67898 13.9994 8.67898C14.8777 8.67898 15.6615 8.88944 16.3509 9.31037C17.0436 9.72798 17.5889 10.3279 17.9866 11.1101C18.3843 11.889 18.5832 12.822 18.5832 13.9091ZM17.0619 13.9091C17.0619 13.0805 16.9276 12.3828 16.6592 11.8161C16.394 11.246 16.0294 10.8151 15.5654 10.5234C15.1047 10.2285 14.5827 10.081 13.9994 10.081C13.4127 10.081 12.8891 10.2285 12.4284 10.5234C11.9677 10.8151 11.6031 11.246 11.3346 11.8161C11.0695 12.3828 10.9369 13.0805 10.9369 13.9091C10.9369 14.7377 11.0695 15.437 11.3346 16.0071C11.6031 16.5739 11.9677 17.0047 12.4284 17.2997C12.8891 17.5914 13.4127 17.7372 13.9994 17.7372C14.5827 17.7372 15.1047 17.5914 15.5654 17.2997C16.0294 17.0047 16.394 16.5739 16.6592 16.0071C16.9276 15.437 17.0619 14.7377 17.0619 13.9091Z" fill="white"/>
</svg>
