<svg width="28" height="28" viewBox="0 0 28 28" fill="none" xmlns="http://www.w3.org/2000/svg">
<rect width="28" height="28" rx="14" fill="#FCEF50"/>
<path d="M10.5385 19V8.81818H14.2672C14.9898 8.81818 15.588 8.9375 16.062 9.17614C16.5359 9.41146 16.8906 9.7313 17.1259 10.1357C17.3612 10.5367 17.4789 10.9891 17.4789 11.4929C17.4789 11.9171 17.401 12.2751 17.2452 12.5668C17.0894 12.8551 16.8806 13.0871 16.6188 13.2628C16.3603 13.4351 16.0752 13.5611 15.7637 13.6406V13.7401C16.1017 13.7566 16.4315 13.866 16.753 14.0682C17.0778 14.267 17.3463 14.5504 17.5584 14.9183C17.7705 15.2862 17.8766 15.7337 17.8766 16.2607C17.8766 16.781 17.754 17.2483 17.5087 17.6626C17.2667 18.0736 16.8922 18.4001 16.3851 18.642C15.878 18.8807 15.2301 19 14.4412 19H10.5385ZM12.0748 17.6825H14.2921C15.0279 17.6825 15.5549 17.54 15.873 17.255C16.1912 16.9699 16.3503 16.6136 16.3503 16.1861C16.3503 15.8646 16.2691 15.5696 16.1067 15.3011C15.9443 15.0327 15.7123 14.8189 15.4107 14.6598C15.1124 14.5007 14.7578 14.4212 14.3468 14.4212H12.0748V17.6825ZM12.0748 13.223H14.133C14.4777 13.223 14.7876 13.1567 15.0627 13.0241C15.3411 12.8916 15.5615 12.706 15.7239 12.4673C15.8896 12.2254 15.9725 11.9403 15.9725 11.6122C15.9725 11.1913 15.825 10.8383 15.53 10.5533C15.235 10.2682 14.7826 10.1257 14.1728 10.1257H12.0748V13.223Z" fill="black"/>
</svg>
