<svg width="28" height="28" viewBox="0 0 28 28" fill="none" xmlns="http://www.w3.org/2000/svg">
<rect width="28" height="28" rx="14" fill="#7DB454"/>
<path d="M18.4278 12.1293H16.8767C16.817 11.7978 16.706 11.5062 16.5436 11.2543C16.3812 11.0024 16.1823 10.7886 15.947 10.6129C15.7117 10.4373 15.4482 10.3047 15.1565 10.2152C14.8682 10.1257 14.5616 10.081 14.2368 10.081C13.6501 10.081 13.1248 10.2285 12.6608 10.5234C12.2001 10.8184 11.8355 11.2509 11.567 11.821C11.3019 12.3911 11.1693 13.0871 11.1693 13.9091C11.1693 14.7377 11.3019 15.437 11.567 16.0071C11.8355 16.5772 12.2017 17.008 12.6657 17.2997C13.1298 17.5914 13.6518 17.7372 14.2318 17.7372C14.5533 17.7372 14.8582 17.6941 15.1466 17.608C15.4382 17.5185 15.7017 17.3875 15.9371 17.2152C16.1724 17.0429 16.3712 16.8324 16.5336 16.5838C16.6994 16.3319 16.8137 16.0436 16.8767 15.7188L18.4278 15.7237C18.345 16.2242 18.1842 16.6849 17.9456 17.1058C17.7103 17.5234 17.407 17.8847 17.0358 18.1896C16.6679 18.4912 16.247 18.7249 15.773 18.8906C15.299 19.0563 14.782 19.1392 14.2219 19.1392C13.3402 19.1392 12.5547 18.9304 11.8653 18.5128C11.1759 18.0919 10.6324 17.4903 10.2346 16.7081C9.84023 15.9259 9.64302 14.9929 9.64302 13.9091C9.64302 12.822 9.84189 11.889 10.2396 11.1101C10.6373 10.3279 11.1809 9.72798 11.8703 9.31037C12.5597 8.88944 13.3435 8.67898 14.2219 8.67898C14.7621 8.67898 15.2659 8.75687 15.7332 8.91264C16.2039 9.0651 16.6265 9.29048 17.001 9.58878C17.3755 9.88376 17.6854 10.245 17.9307 10.6726C18.1759 11.0968 18.3416 11.5824 18.4278 12.1293Z" fill="white"/>
</svg>
