<svg width="42" height="28" viewBox="0 0 42 28" fill="none" xmlns="http://www.w3.org/2000/svg">
<g clip-path="url(#clip0_104_7651)">
<rect width="42" height="28" rx="14" fill="#7DB454"/>
<path d="M9.45348 19V8.81818H16.0756V10.3643H11.2979V13.1286H15.7326V14.6747H11.2979V17.4538H16.1154V19H9.45348ZM21.2088 19.1491C20.4465 19.1491 19.7919 18.9818 19.245 18.647C18.7015 18.3123 18.2822 17.8499 17.9872 17.2599C17.6955 16.6667 17.5497 15.9839 17.5497 15.2116C17.5497 14.4361 17.6989 13.7517 17.9972 13.1584C18.2955 12.5618 18.7164 12.0978 19.2599 11.7663C19.8068 11.4316 20.4531 11.2642 21.1989 11.2642C21.8187 11.2642 22.3672 11.3786 22.8445 11.6072C23.325 11.8326 23.7079 12.1525 23.9929 12.5668C24.2779 12.9777 24.4403 13.4583 24.4801 14.0085H22.7599C22.6903 13.6406 22.5246 13.334 22.2628 13.0888C22.0043 12.8402 21.6579 12.7159 21.2237 12.7159C20.8558 12.7159 20.5327 12.8153 20.2543 13.0142C19.9759 13.2098 19.7588 13.4915 19.603 13.8594C19.4505 14.2273 19.3743 14.6681 19.3743 15.1818C19.3743 15.7022 19.4505 16.1496 19.603 16.5241C19.7554 16.8954 19.9692 17.1821 20.2443 17.3842C20.5227 17.5831 20.8492 17.6825 21.2237 17.6825C21.4889 17.6825 21.7259 17.6328 21.9347 17.5334C22.1468 17.4306 22.3241 17.2831 22.4666 17.0909C22.6091 16.8987 22.7069 16.665 22.7599 16.3899H24.4801C24.437 16.9302 24.2779 17.4091 24.0028 17.8267C23.7277 18.241 23.3532 18.5658 22.8793 18.8011C22.4053 19.0331 21.8485 19.1491 21.2088 19.1491ZM29.2889 19.1491C28.5431 19.1491 27.8968 18.9851 27.35 18.657C26.8031 18.3288 26.3788 17.8698 26.0772 17.2798C25.7789 16.6899 25.6298 16.0005 25.6298 15.2116C25.6298 14.4228 25.7789 13.7318 26.0772 13.1385C26.3788 12.5452 26.8031 12.0845 27.35 11.7564C27.8968 11.4283 28.5431 11.2642 29.2889 11.2642C30.0346 11.2642 30.6809 11.4283 31.2278 11.7564C31.7747 12.0845 32.1973 12.5452 32.4956 13.1385C32.7972 13.7318 32.948 14.4228 32.948 15.2116C32.948 16.0005 32.7972 16.6899 32.4956 17.2798C32.1973 17.8698 31.7747 18.3288 31.2278 18.657C30.6809 18.9851 30.0346 19.1491 29.2889 19.1491ZM29.2988 17.7074C29.7032 17.7074 30.0413 17.5964 30.313 17.3743C30.5848 17.1489 30.787 16.8473 30.9196 16.4695C31.0555 16.0916 31.1234 15.6707 31.1234 15.2067C31.1234 14.7393 31.0555 14.3168 30.9196 13.9389C30.787 13.5578 30.5848 13.2545 30.313 13.0291C30.0413 12.8037 29.7032 12.6911 29.2988 12.6911C28.8845 12.6911 28.5398 12.8037 28.2647 13.0291C27.993 13.2545 27.7891 13.5578 27.6532 13.9389C27.5207 14.3168 27.4544 14.7393 27.4544 15.2067C27.4544 15.6707 27.5207 16.0916 27.6532 16.4695C27.7891 16.8473 27.993 17.1489 28.2647 17.3743C28.5398 17.5964 28.8845 17.7074 29.2988 17.7074Z" fill="white"/>
</g>
<g clip-path="url(#clip1_104_7651)">
<rect width="42" height="28" rx="14" fill="#377FC4"/>
<path d="M9.45348 19V8.81818H16.0756V10.3643H11.2979V13.1286H15.7326V14.6747H11.2979V17.4538H16.1154V19H9.45348ZM21.2088 19.1491C20.4465 19.1491 19.7919 18.9818 19.245 18.647C18.7015 18.3123 18.2822 17.8499 17.9872 17.2599C17.6955 16.6667 17.5497 15.9839 17.5497 15.2116C17.5497 14.4361 17.6989 13.7517 17.9972 13.1584C18.2955 12.5618 18.7164 12.0978 19.2599 11.7663C19.8068 11.4316 20.4531 11.2642 21.1989 11.2642C21.8187 11.2642 22.3672 11.3786 22.8445 11.6072C23.325 11.8326 23.7079 12.1525 23.9929 12.5668C24.2779 12.9777 24.4403 13.4583 24.4801 14.0085H22.7599C22.6903 13.6406 22.5246 13.334 22.2628 13.0888C22.0043 12.8402 21.6579 12.7159 21.2237 12.7159C20.8558 12.7159 20.5327 12.8153 20.2543 13.0142C19.9759 13.2098 19.7588 13.4915 19.603 13.8594C19.4505 14.2273 19.3743 14.6681 19.3743 15.1818C19.3743 15.7022 19.4505 16.1496 19.603 16.5241C19.7554 16.8954 19.9692 17.1821 20.2443 17.3842C20.5227 17.5831 20.8492 17.6825 21.2237 17.6825C21.4889 17.6825 21.7259 17.6328 21.9347 17.5334C22.1468 17.4306 22.3241 17.2831 22.4666 17.0909C22.6091 16.8987 22.7069 16.665 22.7599 16.3899H24.4801C24.437 16.9302 24.2779 17.4091 24.0028 17.8267C23.7277 18.241 23.3532 18.5658 22.8793 18.8011C22.4053 19.0331 21.8485 19.1491 21.2088 19.1491ZM29.2889 19.1491C28.5431 19.1491 27.8968 18.9851 27.35 18.657C26.8031 18.3288 26.3788 17.8698 26.0772 17.2798C25.7789 16.6899 25.6298 16.0005 25.6298 15.2116C25.6298 14.4228 25.7789 13.7318 26.0772 13.1385C26.3788 12.5452 26.8031 12.0845 27.35 11.7564C27.8968 11.4283 28.5431 11.2642 29.2889 11.2642C30.0346 11.2642 30.6809 11.4283 31.2278 11.7564C31.7747 12.0845 32.1973 12.5452 32.4956 13.1385C32.7972 13.7318 32.948 14.4228 32.948 15.2116C32.948 16.0005 32.7972 16.6899 32.4956 17.2798C32.1973 17.8698 31.7747 18.3288 31.2278 18.657C30.6809 18.9851 30.0346 19.1491 29.2889 19.1491ZM29.2988 17.7074C29.7032 17.7074 30.0413 17.5964 30.313 17.3743C30.5848 17.1489 30.787 16.8473 30.9196 16.4695C31.0555 16.0916 31.1234 15.6707 31.1234 15.2067C31.1234 14.7393 31.0555 14.3168 30.9196 13.9389C30.787 13.5578 30.5848 13.2545 30.313 13.0291C30.0413 12.8037 29.7032 12.6911 29.2988 12.6911C28.8845 12.6911 28.5398 12.8037 28.2647 13.0291C27.993 13.2545 27.7891 13.5578 27.6532 13.9389C27.5207 14.3168 27.4544 14.7393 27.4544 15.2067C27.4544 15.6707 27.5207 16.0916 27.6532 16.4695C27.7891 16.8473 27.993 17.1489 28.2647 17.3743C28.5398 17.5964 28.8845 17.7074 29.2988 17.7074Z" fill="white"/>
</g>
<defs>
<clipPath id="clip0_104_7651">
<rect width="21" height="28" fill="white"/>
</clipPath>
<clipPath id="clip1_104_7651">
<rect width="21" height="28" fill="white" transform="translate(21)"/>
</clipPath>
</defs>
</svg>
