<svg width="23" height="18" viewBox="0 0 23 18" fill="none" xmlns="http://www.w3.org/2000/svg">
<g clip-path="url(#clip0_261_742)">
<path d="M5.92674 12.9521H7.04468C7.38993 12.9521 7.61187 12.7551 7.69407 12.4432L8.02288 11.0889C8.25305 11.0068 8.47502 10.9247 8.67224 10.8098L9.86424 11.5485C10.1354 11.7127 10.4561 11.688 10.6862 11.4582L11.4753 10.662C11.6973 10.4323 11.7384 10.104 11.5657 9.82491L10.8342 8.65932C10.9328 8.45415 11.0315 8.24075 11.0972 8.01913L12.4535 7.69081C12.7823 7.61694 12.9715 7.38712 12.9715 7.05059V5.94252C12.9715 5.6142 12.7823 5.37617 12.4535 5.3023L11.1136 4.96577C11.0315 4.71953 10.9328 4.50613 10.8506 4.32555L11.5657 3.13541C11.7301 2.84812 11.7301 2.54443 11.4918 2.31461L10.6862 1.52665C10.4561 1.31324 10.1519 1.25579 9.88065 1.41994L8.67224 2.16686C8.48319 2.06016 8.26126 1.96988 8.02288 1.89601L7.69407 0.517071C7.61187 0.20517 7.38993 0.00817871 7.04468 0.00817871H5.92674C5.58149 0.00817871 5.35132 0.20517 5.27734 0.517071L4.94854 1.87959C4.71837 1.96166 4.48821 2.04375 4.29093 2.15866L3.09079 1.41994C2.81952 1.25579 2.51537 1.30503 2.2852 1.52665L1.47963 2.31461C1.24125 2.54443 1.24125 2.84812 1.40565 3.13541L2.1208 4.32555C2.0386 4.50613 1.93996 4.71953 1.85776 4.96577L0.50965 5.3023C0.189063 5.37617 0 5.6142 0 5.94252V7.05059C0 7.38712 0.189063 7.61694 0.50965 7.69081L1.8742 8.01913C1.93996 8.24075 2.0386 8.45415 2.13724 8.65932L1.40565 9.82491C1.23302 10.104 1.27412 10.4323 1.49607 10.662L2.2852 11.4582C2.51537 11.688 2.83596 11.7127 3.10722 11.5485L4.29914 10.8098C4.49643 10.9247 4.71837 11.0068 4.94854 11.0889L5.27734 12.4432C5.35132 12.7551 5.58149 12.9521 5.92674 12.9521ZM6.48571 8.53619C5.34311 8.53619 4.41423 7.61694 4.41423 6.46783C4.41423 5.32692 5.34311 4.40763 6.48571 4.40763C7.62831 4.40763 8.55718 5.32692 8.55718 6.46783C8.55718 7.61694 7.62831 8.53619 6.48571 8.53619ZM16.6623 18H17.5994C17.9035 18 18.109 17.8276 18.1665 17.5649L18.4378 16.3913C18.6515 16.3092 18.8406 16.2435 19.0132 16.145L20.0408 16.7852C20.2709 16.933 20.5422 16.9166 20.7477 16.7113L21.4053 16.0465C21.6108 15.8413 21.6437 15.5541 21.4875 15.3242L20.8546 14.3064C20.945 14.134 21.019 13.9453 21.0847 13.7565L22.2684 13.4774C22.5396 13.42 22.6959 13.2148 22.6959 12.9193V11.9918C22.6959 11.6963 22.5396 11.4911 22.2684 11.4255L21.0929 11.1463C21.019 10.9329 20.945 10.7442 20.8628 10.5883L21.4875 9.55402C21.6437 9.30776 21.6354 9.05334 21.4217 8.84809L20.7477 8.19149C20.5422 8.00271 20.2791 7.95346 20.049 8.093L19.0132 8.74144C18.8489 8.65932 18.6515 8.56905 18.4378 8.51164L18.1665 7.31324C18.109 7.05059 17.9035 6.87002 17.5994 6.87002H16.6623C16.3664 6.87002 16.1608 7.05059 16.0951 7.31324L15.8156 8.49517C15.6183 8.56905 15.4128 8.63469 15.2402 8.7332L14.2044 8.093C13.9825 7.96168 13.7194 7.99451 13.514 8.19149L12.8481 8.84809C12.6344 9.05334 12.6262 9.30776 12.7741 9.55402L13.3906 10.5883C13.3167 10.7442 13.2427 10.9329 13.1687 11.1463L12.0014 11.4255C11.722 11.4911 11.5576 11.6963 11.5576 11.9918V12.9193C11.5576 13.2148 11.722 13.42 12.0014 13.4774L13.1852 13.7565C13.2427 13.9453 13.3167 14.134 13.4071 14.3064L12.7741 15.3242C12.6179 15.5541 12.6591 15.8413 12.8563 16.0465L13.514 16.7113C13.7194 16.9166 13.9907 16.933 14.2209 16.7852L15.2484 16.145C15.421 16.2435 15.6183 16.3092 15.8156 16.3913L16.0951 17.5649C16.1608 17.8276 16.3664 18 16.6623 18ZM17.1309 14.0684C16.2266 14.0684 15.4868 13.3378 15.4868 12.4268C15.4868 11.5239 16.2266 10.7852 17.1309 10.7852C18.0432 10.7852 18.7749 11.5239 18.7749 12.4268C18.7749 13.3378 18.0432 14.0684 17.1309 14.0684Z" fill="#7A5AF8"/>
</g>
<defs>
<clipPath id="clip0_261_742">
<rect width="23" height="18" fill="white"/>
</clipPath>
</defs>
</svg>
