<svg width="16" height="14" viewBox="0 0 16 14" fill="none" xmlns="http://www.w3.org/2000/svg">
<path d="M2.33024 14H13.3952C14.9685 14 15.7254 13.2354 15.7254 11.6373V2.31676C15.7254 0.787545 14.961 0.00764465 13.4619 0.00764465H9.86269C8.65304 0.00764465 7.89608 0.275257 6.91651 1.03222L1.15028 5.55105C0.296846 6.21626 0 6.80501 0 7.8984V11.6373C0 13.2354 0.764379 14 2.33024 14ZM2.37477 6.95028C1.98144 6.95028 1.89981 6.51445 2.20408 6.28507L7.73285 1.92681C8.36366 1.40688 8.91278 1.23866 9.86269 1.23866H13.4397C14.1299 1.23866 14.5306 1.63626 14.5306 2.37793V5.81102C14.5306 6.54504 14.1225 6.95028 13.4397 6.95028H2.37477Z" fill="#7A5AF8"/>
</svg>
