<svg width="21" height="18" viewBox="0 0 21 18" fill="none" xmlns="http://www.w3.org/2000/svg">
<g clip-path="url(#clip0_96_3019)">
<path d="M14.0721 17.3868V2.04931C14.0721 0.726132 13.3513 0 12.0458 0H5.5984C4.27689 0 3.58009 0.726132 3.58009 2.04931V17.3868H14.0721ZM5.85469 7.30973C5.27002 7.30973 4.91762 6.987 4.91762 6.44644V2.23487C4.91762 1.68624 5.27002 1.35544 5.85469 1.35544H11.7895C12.3741 1.35544 12.7266 1.68624 12.7266 2.23487V6.44644C12.7266 6.987 12.3741 7.30973 11.7895 7.30973H5.85469ZM2.30664 17.3304C2.30664 17.6934 2.59497 17.9919 2.93936 17.9919H14.6968C15.0411 17.9919 15.3375 17.6934 15.3375 17.3304C15.3375 16.9834 15.0411 16.693 14.6968 16.693H2.93936C2.60298 16.693 2.30664 16.9754 2.30664 17.3304ZM18.365 8.15689V13.3043C18.365 14.3774 17.9005 14.9906 17.0835 14.9906C16.3466 14.9906 15.8821 14.4984 15.8821 13.7078C15.8821 12.5217 16.0744 10.9485 16.0744 9.50426C16.0744 8.09234 15.3856 7.01927 13.6877 6.45451L13.3032 7.342C14.5847 7.73734 15.1053 8.53606 15.1053 9.50426C15.1053 10.7952 14.913 12.3684 14.913 13.7078C14.913 15.0955 15.754 15.9749 17.0835 15.9749C18.5171 15.9749 19.3341 14.9987 19.3341 13.3043V8.15689C19.3341 7.43075 19.8787 7.23712 20.2151 6.9628C20.7276 6.5836 21 6.04303 21 5.41371V4.32452C21 4.15509 20.8959 4.04214 20.7517 4.04214H20.2391V2.5818C20.2391 2.36396 20.0549 2.1784 19.8307 2.1784C19.6144 2.1784 19.4302 2.36396 19.4302 2.5818V4.04214H18.357V2.5818C18.357 2.36396 18.1808 2.1784 17.9645 2.1784C17.7323 2.1784 17.564 2.36396 17.564 2.5818V4.04214H16.9553C16.7952 4.04214 16.699 4.15509 16.699 4.32452V5.41371C16.699 6.04303 16.9794 6.5836 17.476 6.9628C17.8284 7.23712 18.365 7.43075 18.365 8.15689Z" fill="#7A5AF8"/>
</g>
<defs>
<clipPath id="clip0_96_3019">
<rect width="21" height="18" fill="white"/>
</clipPath>
</defs>
</svg>
