<svg width="20" height="12" viewBox="0 0 20 12" fill="none" xmlns="http://www.w3.org/2000/svg">
<path d="M9.86902 11.993C15.6987 11.993 19.7307 7.4215 19.7307 5.99648C19.7307 4.56438 15.6914 0 9.86902 0C4.11209 0 0 4.56438 0 5.99648C0 7.4215 4.11209 11.993 9.86902 11.993ZM9.86902 9.94008C7.62009 9.94008 5.80059 8.16933 5.80059 5.99648C5.80059 3.81658 7.62009 2.05292 9.86902 2.05292C12.1106 2.05292 13.9374 3.81658 13.9374 5.99648C13.9374 8.16933 12.1106 9.94008 9.86902 9.94008ZM9.86902 7.43566C10.6914 7.43566 11.3537 6.79367 11.3537 5.99648C11.3537 5.19931 10.6914 4.55732 9.86902 4.55732C9.04661 4.55732 8.38429 5.19931 8.38429 5.99648C8.38429 6.79367 9.04661 7.43566 9.86902 7.43566Z" fill="#7A5AF8"/>
</svg>
