<svg width="18" height="18" viewBox="0 0 18 18" fill="none" xmlns="http://www.w3.org/2000/svg">
<g clip-path="url(#clip0_96_1104)">
<path d="M12.6192 17.3868V2.04931C12.6192 0.726132 11.8889 0 10.566 0H4.03319C2.69414 0 1.9881 0.726132 1.9881 2.04931V17.3868H12.6192ZM4.29288 7.30973C3.70045 7.30973 3.34338 6.987 3.34338 6.44644V2.23487C3.34338 1.68624 3.70045 1.35544 4.29288 1.35544H10.3064C10.8988 1.35544 11.2559 1.68624 11.2559 2.23487V6.44644C11.2559 6.987 10.8988 7.30973 10.3064 7.30973H4.29288ZM0.697754 17.3304C0.697754 17.6934 0.989911 17.9919 1.33887 17.9919H13.2523C13.6013 17.9919 13.9015 17.6934 13.9015 17.3304C13.9015 16.9834 13.6013 16.693 13.2523 16.693H1.33887C0.998022 16.693 0.697754 16.9754 0.697754 17.3304ZM15.6869 15.9749C17.1639 15.9749 17.9998 14.9906 17.9998 13.2479C17.9998 11.2228 17.6021 8.89107 16.8393 5.22008L16.6689 4.37293C16.4984 3.57418 16.2549 2.92873 15.7762 2.33169L14.8592 1.19408C14.4452 0.677723 13.6418 1.27477 14.0881 1.83147L15.2405 3.25952C15.3136 3.35634 15.3217 3.48543 15.2568 3.59839L14.567 4.85702C14.3885 5.19588 14.429 5.42179 14.7131 5.73644L16.2225 7.33393C16.7338 9.62529 17.0178 11.6584 17.0178 13.2479C17.0178 14.3694 16.539 14.9906 15.6869 14.9906C14.9403 14.9906 14.4534 14.5065 14.4534 13.7078C14.4534 12.5217 14.6482 10.9485 14.6482 9.50426C14.6482 8.09234 13.9502 7.01927 12.2297 6.45451L11.8402 7.342C13.1386 7.73734 13.6662 8.53606 13.6662 9.50426C13.6662 10.7952 13.4714 12.3684 13.4714 13.7078C13.4714 15.1035 14.3398 15.9749 15.6869 15.9749Z" fill="#7A5AF8"/>
</g>
<defs>
<clipPath id="clip0_96_1104">
<rect width="18" height="18" fill="white"/>
</clipPath>
</defs>
</svg>
